<svg width="20" height="20" viewBox="0 0 20 20" fill="none" xmlns="http://www.w3.org/2000/svg">
<g id="cds-react-aria-9">
<path id="Vector" fill-rule="evenodd" clip-rule="evenodd" d="M9.93988 2.44092L18.6979 6.81992L9.93988 11.1989L1.18188 6.81992L9.93988 2.44092ZM3.41788 6.81992L9.93988 10.0809L16.4619 6.81992L9.93988 3.55892L3.41788 6.81992Z" fill="#0F8277"/>
<path id="Vector_2" fill-rule="evenodd" clip-rule="evenodd" d="M5.62012 11.48V8.72998H6.62012V11.48C6.62012 11.967 6.91312 12.467 7.51312 12.868C8.10912 13.267 8.96512 13.53 9.94012 13.53C10.9151 13.53 11.7701 13.267 12.3671 12.868C12.9671 12.468 13.2601 11.968 13.2601 11.48V8.72998H14.2601V11.48C14.2601 12.403 13.7031 13.178 12.9231 13.7C12.1391 14.223 11.0851 14.53 9.94012 14.53C8.79512 14.53 7.74012 14.223 6.95712 13.7C6.17712 13.178 5.62012 12.403 5.62012 11.48Z" fill="#0F8277"/>
<path id="Vector_3" fill-rule="evenodd" clip-rule="evenodd" d="M9.49305 6.59694C9.55229 6.47847 9.65611 6.38835 9.78172 6.34636C9.90734 6.30436 10.0445 6.31392 10.1631 6.37294L16.9531 9.76294C17.0362 9.80436 17.1061 9.86813 17.1551 9.94708C17.204 10.026 17.23 10.1171 17.2301 10.2099V12.3299C17.2301 12.4625 17.1774 12.5897 17.0836 12.6835C16.9898 12.7773 16.8627 12.8299 16.7301 12.8299C16.5974 12.8299 16.4703 12.7773 16.3765 12.6835C16.2827 12.5897 16.2301 12.4625 16.2301 12.3299V10.5199L9.71705 7.26594C9.59859 7.2067 9.50847 7.10288 9.46647 6.97727C9.42448 6.85165 9.43404 6.71551 9.49305 6.59694Z" fill="#0F8277"/>
<path id="Vector_4" fill-rule="evenodd" clip-rule="evenodd" d="M16.008 11.8679C16.2893 11.7442 16.5978 11.6953 16.9035 11.7261C17.2092 11.7569 17.5017 11.8664 17.7526 12.0438C18.0035 12.2212 18.2042 12.4605 18.3352 12.7384C18.4662 13.0164 18.523 13.3235 18.5 13.6299V17.4999H14.95V13.6299C14.9226 13.2629 15.0096 12.8964 15.199 12.5808C15.3885 12.2653 15.6711 12.0162 16.008 11.8679ZM16.725 12.7169C16.6168 12.7169 16.5097 12.7395 16.4106 12.7831C16.3116 12.8267 16.2227 12.8905 16.1496 12.9703C16.0765 13.0502 16.0208 13.1444 15.9861 13.2469C15.9514 13.3495 15.9385 13.4581 15.948 13.5659L15.95 13.5879V16.4999H17.5V13.5879L17.502 13.5659C17.5116 13.4581 17.4986 13.3495 17.4639 13.2469C17.4292 13.1444 17.3736 13.0502 17.3005 12.9703C17.2274 12.8905 17.1385 12.8267 17.0394 12.7831C16.9404 12.7395 16.8333 12.7169 16.725 12.7169Z" fill="#0F8277"/>
</g>
</svg>
